<svg xmlns="http://www.w3.org/2000/svg" viewBox="0 0 179.5 179.76"><g id="Layer_2" data-name="Layer 2"><g id="Layer_1-2" data-name="Layer 1"><path d="M179.47,89.47q0,29.07,0,58.13c0,19.75-14,32.76-33.82,32.14-14.73-.46-29.48,0-44.22-.08-24.49-.06-49,.2-73.47-.38C12.07,178.9.09,165.31.05,148.74,0,113.11,0,77.49,0,41.86c0-4.38-.1-8.76.06-13.13C.69,13.1,13.58.19,29.23.12Q89.59-.12,150,.11a29.56,29.56,0,0,1,29.49,29.74C179.54,49.72,179.47,69.6,179.47,89.47ZM89.85,8.36H31.75c-14.33,0-23.41,9.05-23.42,23.4q0,58.11,0,116.22c0,14,9.24,23.2,23.28,23.21q58.11,0,116.2,0c14.4,0,23.35-9,23.36-23.45V31.52c0-14.17-9-23.15-23.23-23.16Z"/><polygon points="104.37 100.29 117.07 64.82 132.25 64.82 161.72 139.82 145.48 139.82 125.19 83.88 123.95 83.53 114.78 110.53 142.31 110.17 145.48 122.7 113.01 122.53 104.37 100.29"/><path d="M77.08,39.94H55.37L17.78,139.83H39.31l8.1-23H85.48l8.36,23h22.59Zm-24,60.89L66.14,63.77l13.5,37.06Z"/></g></g></svg>