<svg id="Layer_1" enable-background="new 0 0 450 450" viewBox="0 0 450 450" xmlns="http://www.w3.org/2000/svg"><g><g clip-rule="evenodd" fill="#76bedd" fill-rule="evenodd"><path d="m257.12 113c-2.59 0-4.7-2.1-4.7-4.7s2.1-4.7 4.7-4.7h108.2c2.59 0 4.7 2.1 4.7 4.7s-2.1 4.7-4.7 4.7z"/><path d="m257.12 171.72c-2.59 0-4.7-2.1-4.7-4.7 0-2.59 2.1-4.7 4.7-4.7h75.89c2.59 0 4.7 2.1 4.7 4.7 0 2.59-2.1 4.7-4.7 4.7z"/><path d="m257.12 230.44c-2.59 0-4.7-2.1-4.7-4.7s2.1-4.7 4.7-4.7h108.2c2.59 0 4.7 2.1 4.7 4.7s-2.1 4.7-4.7 4.7z"/><path d="m257.12 289.15c-2.59 0-4.7-2.1-4.7-4.7 0-2.59 2.1-4.7 4.7-4.7h75.89c2.59 0 4.7 2.1 4.7 4.7 0 2.59-2.1 4.7-4.7 4.7z"/><path d="m257.12 347.87c-2.59 0-4.7-2.1-4.7-4.7 0-2.59 2.1-4.7 4.7-4.7h108.2c2.59 0 4.7 2.1 4.7 4.7 0 2.59-2.1 4.7-4.7 4.7z"/><path d="m257.12 69.1c-2.59 0-4.7-2.1-4.7-4.7s2.1-4.7 4.7-4.7h51.41l21.31-23.34c.92-1.02 2.19-1.53 3.47-1.53v-.01h41.75c2.59 0 4.7 2.1 4.7 4.7 0 2.59-2.1 4.7-4.7 4.7h-39.69l-21.12 23.14c-.86 1.06-2.18 1.74-3.65 1.74z"/><path d="m257.12 391.77c-2.59 0-4.7-2.1-4.7-4.7 0-2.59 2.1-4.7 4.7-4.7h10.21c1.47 0 2.79.68 3.65 1.74l21.12 23.14h39.69c2.59 0 4.7 2.1 4.7 4.7 0 2.59-2.1 4.7-4.7 4.7h-41.75v-.01c-1.27 0-2.54-.52-3.47-1.53l-21.31-23.34z"/></g><g><path d="m257.12 441.74h-21.93c-7.87 0-15.03-3.22-20.21-8.4s-8.4-12.34-8.4-20.21v-54.4c-1.3-.5-2.59-1.01-3.87-1.54-1.26-.52-2.54-1.08-3.86-1.68l-38.48 38.48c-5.57 5.57-12.9 8.35-20.24 8.35-7.33 0-14.67-2.78-20.23-8.35l-31.01-31.01c-5.57-5.57-8.35-12.9-8.35-20.23s2.78-14.67 8.35-20.23l38.47-38.47c-.59-1.31-1.15-2.59-1.67-3.84-.54-1.29-1.05-2.59-1.55-3.9h-54.4c-7.87 0-15.03-3.22-20.21-8.4s-8.4-12.34-8.4-20.21v-43.86c0-7.87 3.22-15.03 8.4-20.21s12.34-8.4 20.21-8.4h54.4c.5-1.31 1.01-2.6 1.55-3.89.52-1.25 1.08-2.54 1.67-3.85l-38.47-38.47c-5.57-5.57-8.35-12.9-8.35-20.23s2.78-14.67 8.35-20.23l31.01-31.01c5.57-5.57 12.9-8.35 20.23-8.35s14.67 2.78 20.24 8.35l38.48 38.48c1.31-.6 2.6-1.15 3.85-1.67 1.28-.53 2.58-1.05 3.88-1.54v-54.4c0-7.87 3.22-15.03 8.4-20.21s12.34-8.4 20.21-8.4h21.93c2.59 0 4.7 2.1 4.7 4.7v422.61c0 2.52-2.11 4.62-4.7 4.62z" fill="#99b4cd"/><path d="m261.82 115.46v220.55c-60.9 0-110.28-49.37-110.28-110.28s49.37-110.27 110.28-110.27z" fill="#8aa2b9"/><path d="m261.82 137.48v176.52c-48.75 0-88.26-39.52-88.26-88.26s39.51-88.26 88.26-88.26z" fill="#fff"/></g><g clip-rule="evenodd" fill-rule="evenodd"><path d="m347.83 147.5c5.39 0 10.27 2.19 13.8 5.72s5.72 8.41 5.72 13.8-2.19 10.27-5.72 13.8-8.41 5.72-13.8 5.72-10.27-2.19-13.8-5.72-5.72-8.41-5.72-13.8 2.19-10.27 5.72-13.8c3.53-3.54 8.41-5.72 13.8-5.72z" fill="#ef5350"/><path d="m380.14 206.22c5.39 0 10.27 2.19 13.8 5.72s5.72 8.41 5.72 13.8-2.19 10.27-5.72 13.8-8.41 5.72-13.8 5.72-10.27-2.19-13.8-5.72-5.72-8.41-5.72-13.8 2.19-10.27 5.72-13.8c3.53-3.54 8.41-5.72 13.8-5.72z" fill="#ffc107"/><path d="m347.83 264.94c5.39 0 10.27 2.19 13.8 5.72s5.72 8.41 5.72 13.8-2.19 10.27-5.72 13.8-8.41 5.72-13.8 5.72-10.27-2.19-13.8-5.72-5.72-8.41-5.72-13.8 2.19-10.27 5.72-13.8c3.53-3.54 8.41-5.72 13.8-5.72z" fill="#98db7c"/><path d="m380.14 323.66c5.39 0 10.27 2.19 13.8 5.72s5.72 8.41 5.72 13.8-2.19 10.27-5.72 13.8-8.41 5.72-13.8 5.72-10.27-2.19-13.8-5.72-5.72-8.41-5.72-13.8 2.19-10.27 5.72-13.8c3.53-3.54 8.41-5.72 13.8-5.72z" fill="#b08cd2"/><path d="m389.88 20.01c5.39 0 10.27 2.19 13.8 5.72s5.72 8.41 5.72 13.8-2.19 10.27-5.72 13.8-8.41 5.72-13.8 5.72-10.27-2.19-13.8-5.72-5.72-8.41-5.72-13.8 2.19-10.27 5.72-13.8 8.41-5.72 13.8-5.72z" fill="#0068c0"/><path d="m346.62 392.43c5.39 0 10.27 2.19 13.8 5.72s5.72 8.41 5.72 13.8-2.19 10.27-5.72 13.8-8.41 5.72-13.8 5.72-10.27-2.19-13.8-5.72-5.72-8.41-5.72-13.8 2.19-10.27 5.72-13.8c3.52-3.54 8.41-5.72 13.8-5.72z" fill="#5c9cee"/><path d="m380.14 88.78c5.39 0 10.27 2.19 13.8 5.72s5.72 8.41 5.72 13.8-2.19 10.27-5.72 13.8-8.41 5.72-13.8 5.72-10.27-2.19-13.8-5.72-5.72-8.41-5.72-13.8 2.19-10.27 5.72-13.8 8.41-5.72 13.8-5.72z" fill="#b5d5f5"/></g></g></svg>