<svg width="180" height="180" viewBox="0 0 180 180" fill="none" xmlns="http://www.w3.org/2000/svg">
<g clip-path="url(#clip0_280_13)">
<path d="M179.47 89.47C179.47 108.85 179.47 128.227 179.47 147.6C179.47 167.35 165.47 180.36 145.65 179.74C130.92 179.28 116.17 179.74 101.43 179.66C76.94 179.6 52.43 179.86 27.96 179.28C12.07 178.9 0.0899957 165.31 0.0499957 148.74C-4.33251e-06 113.11 -4.33251e-06 77.49 -4.33251e-06 41.86C-4.33251e-06 37.48 -0.100004 33.1 0.0599957 28.73C0.689996 13.1 13.58 0.18999 29.23 0.11999C69.47 -0.0400103 109.727 -0.0433436 150 0.10999C153.891 0.119132 157.742 0.896445 161.332 2.39734C164.922 3.89823 168.181 6.09317 170.921 8.85624C173.661 11.6193 175.828 14.8961 177.298 18.4988C178.769 22.1014 179.514 25.9589 179.49 29.85C179.54 49.72 179.47 69.6 179.47 89.47ZM89.85 8.35999H31.75C17.42 8.35999 8.34 17.41 8.33 31.76C8.33 70.5 8.33 109.24 8.33 147.98C8.33 161.98 17.57 171.18 31.61 171.19C70.35 171.19 109.083 171.19 147.81 171.19C162.21 171.19 171.16 162.19 171.17 147.74V31.52C171.17 17.35 162.17 8.36999 147.94 8.35999H89.85Z" fill="#5D6D7E"/>
<path d="M104.37 100.29L117.07 64.82H132.25L161.72 139.82H145.48L125.19 83.88L123.95 83.53L114.78 110.53L142.31 110.17L145.48 122.7L113.01 122.53L104.37 100.29Z" fill="#34495E"/>
<path d="M77.08 39.94H55.37L17.78 139.83H39.31L47.41 116.83H85.48L93.84 139.83H116.43L77.08 39.94ZM53.08 100.83L66.14 63.77L79.64 100.83H53.08Z" fill="#34495E"/>
</g>
<defs>
<clipPath id="clip0_280_13">
<rect width="179.5" height="179.76" fill="white"/>
</clipPath>
</defs>
</svg>
