<svg width="400" height="400" viewBox="0 0 400 400" fill="none" xmlns="http://www.w3.org/2000/svg">
<g clip-path="url(#clip0_95_1473)">
<path d="M248.6 216.3C249.5 219 250.5 222 251.6 225.2C252.8 228.4 254.1 231.6 255.7 234.9C257.3 238.2 259.1 241.3 261.1 244.4C263.1 247.5 265.4 250.2 267.9 252.5C270.5 254.9 273.3 256.7 276.4 258.2C279.5 259.6 283 260.3 286.8 260.3C290.5 260.3 293.7 259.8 296.3 258.7C298.9 257.6 301 256.1 302.6 254.3C304.2 252.5 305.4 250.3 306.1 247.8C306.8 245.3 307.2 242.7 307.2 240C307.2 234.1 305.1 229.4 300.8 226.1C296.5 222.8 290.3 221.1 282.2 221.1C281.2 221.1 280.2 221.1 279.3 221.2C278.3 221.3 277.3 221.3 276.4 221.5V208.4C276.9 208.5 277.3 208.5 277.7 208.5C278.1 208.5 278.3 208.5 278.3 208.5C282.3 208.5 285.9 208 289.1 207C292.2 206 294.9 204.6 297 202.9C299.1 201.2 300.7 199.2 301.8 196.9C302.9 194.6 303.4 192.2 303.4 189.6C303.4 187.3 303 185.3 302.2 183.5C301.4 181.7 300.3 180.2 298.9 179C297.5 177.8 295.9 176.9 294 176.3C292.1 175.7 290 175.4 287.8 175.4C286.2 175.4 284.7 175.5 283.3 175.7C281.9 175.9 280.3 176.2 278.7 176.7C277.1 177.1 275.4 177.7 273.6 178.4C271.8 179.1 269.7 180 267.4 181L262.5 169.2C267 167 271.3 165.4 275.5 164.2C279.6 163.1 283.9 162.5 288.2 162.5C292.3 162.5 296.2 163.2 299.7 164.5C303.2 165.8 306.3 167.7 308.9 170C311.5 172.3 313.5 175.1 314.9 178.3C316.3 181.5 317.1 185 317.1 188.8C317.1 199.1 312.2 207.4 302.3 213.7V214C306.2 215.6 309.4 217.6 312 220C313.7 220.3 315.4 220.5 317.3 220.7C319.2 220.9 320.9 221 322.4 221C324 221 325.7 220.9 327.5 220.7C329.3 220.5 331.1 220 333 219.4C334.9 218.8 336.8 217.9 338.7 216.7C340.6 215.5 342.6 214 344.5 212.2V164.3H376.8V177H358.6V293.2H344.4V227L344.1 226.9C340.8 229.1 337.7 230.5 334.9 231.2C332 231.9 329.1 232.2 326 232.2C325 232.2 324 232.2 323 232.1C322 232 320.9 231.9 319.8 231.8L319.7 232.1C320.6 234.5 321.1 237.4 321.1 240.8C321.1 245.5 320.3 249.8 318.8 253.8C317.2 257.8 315 261.2 312.1 264.1C309.2 267 305.7 269.3 301.6 270.9C297.5 272.5 292.9 273.3 287.7 273.3C282.2 273.3 277.3 272.3 272.9 270.4C268.5 268.5 264.5 266 261 262.9C257.5 259.8 254.4 256.4 251.7 252.6C249 248.8 246.8 244.9 244.9 241.1C243 237.2 241.4 233.6 240.2 230.1C239 226.6 238.1 223.7 237.5 221.4L248.6 216.3Z" fill="#607D8B"/>
<path fill-rule="evenodd" clip-rule="evenodd" d="M373.3 92.2998C377.2 92.2998 380.9 93.7998 383.6 96.4998C386.3 99.1998 387.8 102.7 387.8 106.4V373.7C387.8 377.4 386.3 381 383.6 383.6C380.8 386.3 377.1 387.8 373.3 387.8H226.6L130.2 92.2998H373.3ZM373.3 80.2998H113.6L217.9 400H373.4C388 400 400 388.2 400 373.8V106.5C399.9 92.0998 387.9 80.2998 373.3 80.2998Z" fill="#DCDCDC"/>
<path fill-rule="evenodd" clip-rule="evenodd" d="M193.2 324.5L217.8 400L286.2 324.5H193.2Z" fill="#4352B8"/>
<path fill-rule="evenodd" clip-rule="evenodd" d="M26.6 0C12 0 0 12 0 26.7V298C0 312.6 12 324.6 26.6 324.6H286.3L182.1 0H26.6Z" fill="#4285F4"/>
<path d="M176.9 225H149.1L138 196.2H87.4L76.9 225H49.8L99.2 98.2998H126.3L176.9 225ZM129.8 174.9L112.3 127.9L95.2 174.9H129.8Z" fill="#F5F5F5"/>
</g>
<defs>
<clipPath id="clip0_95_1473">
<rect width="399.9" height="400" fill="white"/>
</clipPath>
</defs>
</svg>
