<svg xmlns="http://www.w3.org/2000/svg" viewBox="0 0 200 200"><defs><style>.cls-1{fill:#86c305;}.cls-2{fill:#132573;}.cls-3{fill:#1a1a1a;}</style></defs><g id="Layer_2" data-name="Layer 2"><g id="Layer_1-2" data-name="Layer 1"><path class="cls-1" d="M200,69.34a70.09,70.09,0,0,1-.44,7.84H188.28a3.18,3.18,0,0,0-3.13,2.6,54,54,0,0,1-8.63,20.81,3.17,3.17,0,0,0,.36,4l8,8a69.84,69.84,0,0,1-11,11l-8-7.95a3.17,3.17,0,0,0-4-.37A54.12,54.12,0,0,1,141,123.92a3.18,3.18,0,0,0-2.61,3.13v11.2q-3.27.38-6.61.43V122.24c15.14-10,27.47-21.75,36.68-34.79a108.41,108.41,0,0,0,15.71-32.53c.36,1.34.66,2.69.92,4.06a3.17,3.17,0,0,0,3.12,2.61h11.34A70.76,70.76,0,0,1,200,69.34Z"/><path class="cls-1" d="M145.06,15.81a108.08,108.08,0,0,0-32.51,15.71c-13,9.21-24.74,21.54-34.79,36.68H61.32q.06-3.37.43-6.66H72.91A3.19,3.19,0,0,0,76,59a55,55,0,0,1,8.69-20.78,3.17,3.17,0,0,0-.37-4.05l-8-8a70.27,70.27,0,0,1,11-11l8,8,.09.07.12.11.18.14.1.07.3.18.06,0,.26.11.1,0,.24.07.11,0a1,1,0,0,0,.24.05l.1,0,.34,0h0c.13,0,.27,0,.39,0l.11,0a2.59,2.59,0,0,0,.4-.09l0,0a1.78,1.78,0,0,0,.36-.14l.08,0a3,3,0,0,0,.38-.23h0a55.22,55.22,0,0,1,20.79-8.69,3.17,3.17,0,0,0,2.59-3.12V.44A70.49,70.49,0,0,1,130.65,0a68.67,68.67,0,0,1,7.76.43V11.76A3.18,3.18,0,0,0,141,14.89C142.21,15.11,143.61,15.43,145.06,15.81Z"/><path class="cls-2" d="M153.63,46.36A34.76,34.76,0,0,0,177,56.63q1-3,1.69-5.72a88.59,88.59,0,0,0,2.61-32.22,89.24,89.24,0,0,0-32.53,2.69q-2.61.69-5.43,1.61A34.83,34.83,0,0,0,153.63,46.36Z"/><path class="cls-3" d="M99.54,100.46a2.64,2.64,0,0,0-2.12-.77,3.19,3.19,0,0,1,2.89,2.88,1.77,1.77,0,0,0,0-.23A2.62,2.62,0,0,0,99.54,100.46Z"/><path class="cls-2" d="M149.13,50.86a41.07,41.07,0,0,1-12-25.57c-16.8,6.83-37.27,20.52-55,47.82a3.21,3.21,0,0,1-2.67,1.45H38.86L14.92,114.09,21,120.21l32-7.15a3.18,3.18,0,0,1,2.95.85L86.09,144a3.18,3.18,0,0,1,.85,2.95l-7.15,32,6.12,6.11,39.53-23.94V120.52a3.19,3.19,0,0,1,1.45-2.67c27.27-17.7,41-38.14,47.83-55A41.12,41.12,0,0,1,149.13,50.86Zm-48.82,51.71a2.46,2.46,0,0,1-.08.46L94.77,123.4l-.87,3.26A2.66,2.66,0,0,1,92,128.54a2.59,2.59,0,0,1-.68.09,2.67,2.67,0,0,1-1.88-.78l-17.3-17.3a2.62,2.62,0,0,1-.78-1.88,2.72,2.72,0,0,1,.09-.69,2.66,2.66,0,0,1,1.88-1.88l3.26-.87L97,99.77a2.36,2.36,0,0,1,.45-.08,2.66,2.66,0,0,1,2.9,2.65A1.77,1.77,0,0,1,100.31,102.57Zm37.77-25.8a10.5,10.5,0,1,1,0-14.86A10.5,10.5,0,0,1,138.08,76.77Z"/><path class="cls-3" d="M100.32,102.34a1.77,1.77,0,0,1,0,.23,3.19,3.19,0,0,0-2.89-2.88,2.66,2.66,0,0,1,2.9,2.65Z"/><path class="cls-1" d="M62.49,158,25.93,194.57a3.18,3.18,0,0,0,4.5,4.5L67,162.5a3.18,3.18,0,0,0-4.5-4.49Z"/><path class="cls-1" d="M28,176.5l31.94-31.94a3.18,3.18,0,0,0-4.5-4.5L23.5,172a3.18,3.18,0,0,0,4.5,4.5Z"/><path class="cls-1" d="M42,133a3.17,3.17,0,0,0-4.49,0L.93,169.57a3.18,3.18,0,0,0,4.5,4.5L42,137.51A3.19,3.19,0,0,0,42,133Z"/></g></g></svg>