<svg width="229" height="222" viewBox="0 0 229 222" fill="none" xmlns="http://www.w3.org/2000/svg">
<g clip-path="url(#clip0_276_2)">
<path d="M214.47 221.8L121.29 136.47L136.82 123.77L228.47 207.06L214.47 221.8Z" fill="#0071BC"/>
<path d="M140.56 79.06C140.56 79.33 140.56 79.6 140.56 79.88H158.12C158.12 79.6 158.12 79.33 158.12 79.06C158.12 58.092 149.79 37.9828 134.964 23.1562C120.137 8.32953 100.028 -3.05176e-05 79.06 -3.05176e-05V17.59C95.3648 17.5926 111.002 24.0688 122.534 35.5952C134.066 47.1217 140.549 62.7552 140.56 79.06Z" fill="#ED1C24"/>
<path d="M17.56 79.06C17.5651 62.7968 24.0129 47.1979 35.4921 35.6775C46.9713 24.1571 62.5469 17.6535 78.81 17.59V0.0299988C57.8822 0.0803274 37.8294 8.43259 23.0537 23.2533C8.27793 38.0741 -0.0133205 58.1521 -1.45269e-05 79.08C-1.45269e-05 79.35 -1.45269e-05 79.62 -1.45269e-05 79.9H17.58C17.58 79.59 17.56 79.33 17.56 79.06Z" fill="#FBB03B"/>
<path d="M17.59 80.13H0.0299988C0.292479 100.87 8.7013 120.675 23.4409 135.269C38.1804 149.863 58.0681 158.074 78.81 158.13V140.59C62.724 140.527 47.3036 134.16 35.8582 122.857C24.4127 111.554 17.8542 96.214 17.59 80.13Z" fill="#39B54A"/>
<path d="M79.06 140.59V158.15C99.84 158.152 119.784 149.966 134.571 135.366C149.358 120.766 157.797 100.928 158.06 80.15H140.53C140.255 96.272 133.658 111.641 122.16 122.946C110.663 134.251 95.1844 140.587 79.06 140.59Z" fill="#0071BC"/>
<path d="M79.06 140.59H78.81V158.15H79.06V140.59Z" fill="#0071BC"/>
<path d="M79.06 17.59V0.0299988H78.81V17.59H79.06Z" fill="#FBB03B"/>
<path d="M140.54 79.88C140.54 79.96 140.54 80.04 140.54 80.13H158.1C158.1 80.04 158.1 79.96 158.1 79.88H140.54Z" fill="#ED1C24"/>
<path d="M17.58 79.88H0.0200195C0.0200195 79.96 0.0200195 80.04 0.0200195 80.13H17.58C17.59 80.04 17.58 79.96 17.58 79.88Z" fill="#39B54A"/>
</g>
<defs>
<clipPath id="clip0_276_2">
<rect width="228.47" height="221.8" fill="white"/>
</clipPath>
</defs>
</svg>
