<?xml version="1.0" encoding="iso-8859-1"?>
<!-- Generator: Adobe Illustrator 19.0.0, SVG Export Plug-In . SVG Version: 6.00 Build 0)  -->
<svg version="1.1" id="Capa_1" xmlns="http://www.w3.org/2000/svg" xmlns:xlink="http://www.w3.org/1999/xlink" x="0px" y="0px"
	 viewBox="0 0 511.997 511.997" style="enable-background:new 0 0 511.997 511.997;" xml:space="preserve">
<polygon style="fill:#5D6D7E;" points="306.164,335.544 318.742,348.145 333.446,362.77 339.104,368.471 368.467,339.1 
	335.553,306.156 "/>
<path style="fill:#F15540;" d="M398.394,338.921L499.667,440.2c7.616,7.58,12.347,18.13,12.329,29.729
	c0,11.622-4.708,22.172-12.329,29.78c-7.593,7.593-18.117,12.288-29.74,12.288c-11.617,0-22.131-4.7-29.747-12.324L338.902,398.405
	L398.394,338.921z"/>
<path style="fill:#FFA184;" d="M384.416,352.914L384.416,352.914l8.223-8.246L493.93,445.96c6.413,6.403,9.923,14.907,9.917,23.969
	c0,9.091-3.515,17.62-9.917,24.02c-1.152,1.116-2.642,1.682-4.124,1.682c-1.498,0-2.99-0.566-4.129-1.705
	c-2.266-2.284-2.266-5.949,0-8.212c4.216-4.204,6.536-9.836,6.536-15.798c0.005-5.939-2.307-11.52-6.518-15.724L384.416,352.914z"/>
<g>
	<path style="fill:#34495E;" d="M338.907,398.408l59.487-59.487l-4.452-4.452c-2.665-2.688-6.339-4.326-10.404-4.326
		c-4.088,0-7.759,1.636-10.422,4.291l-38.674,38.71c-2.66,2.627-4.314,6.321-4.314,10.396c0,4.052,1.654,7.772,4.314,10.404
		L338.907,398.408z"/>
	<path style="fill:#34495E;" d="M0.001,190.159C0.001,85.156,85.142,0,190.161,0C295.192,0,380.328,85.156,380.32,190.159
		c0.005,105.039-85.14,190.167-190.159,190.2C85.142,380.326,0.001,295.196,0.001,190.159z"/>
</g>
<path style="fill:#5D6D7E;" d="M190.168,359.757c93.635,0,169.574-75.932,169.574-169.597c0-93.635-75.94-169.567-169.574-169.567
	c-93.64,0-169.585,75.932-169.585,169.567C20.584,283.827,96.516,359.757,190.168,359.757z"/>
<path style="fill:#E6EAEE;" d="M190.168,346.173c86.139,0,156.001-69.832,156.001-156.014c0-86.129-69.862-155.996-156.001-155.996
	c-86.147,0-155.996,69.868-155.996,155.996C34.172,276.339,104.012,346.173,190.168,346.173z"/>
<g>
	<path style="fill:#FFFFFF;" d="M194.262,59.763c-2.65-3.932-7.217-6.395-12.237-6.113c-21.54,1.308-41.884,7.368-60.488,18.163
		c-6.546,3.835-8.783,12.283-4.984,18.839c3.822,6.513,12.278,8.824,18.801,4.956c14.833-8.558,31.066-13.422,48.287-14.461
		c7.565-0.394,13.381-6.927,12.908-14.479C196.466,64.049,195.585,61.701,194.262,59.763z"/>
	<path style="fill:#FFFFFF;" d="M105.942,105.009c-0.722-1.103-1.677-2.117-2.734-2.995c-5.911-4.823-14.566-3.881-19.348,2.002
		c-14.052,17.257-23.721,37.965-27.983,59.996c-5.048,26.161-2.412,52.941,7.621,77.501c2.926,7.073,10.964,10.391,17.984,7.501
		c7.05-2.862,10.396-10.877,7.511-17.951c-7.997-19.569-10.074-40.96-6.013-61.834c3.331-17.585,11.052-34.112,22.269-47.864
		C109.139,116.58,109.249,109.847,105.942,105.009z"/>
</g>
<g>
</g>
<g>
</g>
<g>
</g>
<g>
</g>
<g>
</g>
<g>
</g>
<g>
</g>
<g>
</g>
<g>
</g>
<g>
</g>
<g>
</g>
<g>
</g>
<g>
</g>
<g>
</g>
<g>
</g>
</svg>
