<svg xmlns="http://www.w3.org/2000/svg" viewBox="0 0 227.73 200"><defs><style>.cls-1{fill:#86c305;}.cls-2{fill:#132573;}</style></defs><g id="Layer_2" data-name="Layer 2"><g id="Layer_1-2" data-name="Layer 1"><path class="cls-1" d="M165.75,98.79c-.52-22.48-17.3-41.24-39.48-45a73.12,73.12,0,0,0-24.81,0c-22.18,3.74-39,22.5-39.47,45,0,.4,0,.81,0,1.21s0,.81,0,1.21c.51,22.48,17.29,41.23,39.47,45a73.18,73.18,0,0,0,24.82,0c22.17-3.75,38.95-22.5,39.47-45,0-.4,0-.81,0-1.21S165.76,99.19,165.75,98.79ZM113.9,133.41a33.43,33.43,0,1,1,0-66.86,34,34,0,0,1,12.16,2.27,3,3,0,0,1,1.43,4.39,8.17,8.17,0,0,0-1.3,4.48,8.41,8.41,0,0,0,8.4,8.4,8.18,8.18,0,0,0,5-1.64,3,3,0,0,1,2.5-.52,3,3,0,0,1,2,1.61,33.43,33.43,0,0,1-30.15,47.87Z"/><path class="cls-2" d="M195.77,76.25a191.08,191.08,0,0,0-39.32-18.44l.11.06A37,37,0,0,1,174.91,79.2a66.09,66.09,0,0,1,0,41.61,37,37,0,0,1-18.35,21.33l-.12.05a190.93,190.93,0,0,0,39.33-18.44,218.08,218.08,0,0,0,32-23.75A218.83,218.83,0,0,0,195.77,76.25Z"/><path class="cls-2" d="M32,76.25A191.08,191.08,0,0,1,71.28,57.81l-.11.06A37,37,0,0,0,52.82,79.2a66.09,66.09,0,0,0,0,41.61,37,37,0,0,0,18.36,21.33l.11.05A191.18,191.18,0,0,1,32,123.75,218.08,218.08,0,0,1,0,100,218.83,218.83,0,0,1,32,76.25Z"/><path class="cls-2" d="M134.59,92a14.37,14.37,0,0,1-13.7-18.64,27.51,27.51,0,1,0,19,17.64A14.22,14.22,0,0,1,134.59,92Z"/><path class="cls-1" d="M164.88,40.79a3,3,0,0,0,4.19-.3l13.1-15.17a3,3,0,1,0-4.5-3.89L164.57,36.6A3,3,0,0,0,164.88,40.79Z"/><path class="cls-1" d="M140,28.3a3,3,0,0,0,3.83-1.75l6.61-17.76a3,3,0,0,0-5.58-2.07l-6.61,17.75A3,3,0,0,0,140,28.3Z"/><path class="cls-1" d="M58.73,40.49a3,3,0,0,0,4.5-3.89L50.13,21.43a3,3,0,1,0-4.5,3.89Z"/><path class="cls-1" d="M84,26.55a3,3,0,0,0,2.78,1.94,2.9,2.9,0,0,0,1-.19,3,3,0,0,0,1.75-3.83L82.93,6.72a3,3,0,1,0-5.57,2.07Z"/><path class="cls-1" d="M113.9,24.16a3,3,0,0,0,3-3V3a3,3,0,0,0-5.95,0V21.19A3,3,0,0,0,113.9,24.16Z"/><path class="cls-1" d="M169.07,159.51a3,3,0,1,0-4.5,3.89l13.1,15.17a3,3,0,0,0,2.25,1,3,3,0,0,0,2-.72,3,3,0,0,0,.3-4.2Z"/><path class="cls-1" d="M143.84,173.45a3,3,0,1,0-5.58,2.08l6.61,17.75a3,3,0,0,0,5.58-2.07Z"/><path class="cls-1" d="M62.93,159.2a3,3,0,0,0-4.2.31l-13.1,15.17a3,3,0,1,0,4.5,3.89l13.1-15.17A3,3,0,0,0,62.93,159.2Z"/><path class="cls-1" d="M87.79,171.7A3,3,0,0,0,84,173.45l-6.61,17.76A3,3,0,0,0,79.11,195a2.88,2.88,0,0,0,1,.19,3,3,0,0,0,2.79-1.94l6.61-17.75A3,3,0,0,0,87.79,171.7Z"/><path class="cls-1" d="M113.9,175.84a3,3,0,0,0-3,3V197a3,3,0,0,0,5.95,0V178.81A3,3,0,0,0,113.9,175.84Z"/></g></g></svg>